<svg xmlns="http://www.w3.org/2000/svg" fill="none" viewBox="0 0 600 600">
  <g clip-path="url(#a)">
    <path fill="#fff" d="M600 0H0v600h600V0Z"/>
    <path fill="#FFEC99" d="m208.4 139.2 276 87.7L395 554.5l-292-79"/>
    <path stroke="#1E1E1E" stroke-linecap="round" stroke-width="6" d="M222.5 60c73 11.3 128.3 32.1 293.6 77.2m-286.8-78c66 16 127.1 38.7 290.2 80.5m1.6-4.8c-54.5 156-94 304.1-123.7 436.4m122.2-429c-41.5 143.4-84 297.4-119.8 422.9m-2.5 1C293 536.9 187.9 508.6 103.6 479m293.8 86.6c-102.3-25.8-201.8-57-291-80m1.1-6.4c32.2-131.6 74-266.5 126.8-420.4M107.5 480c29.3-96.7 60-195.5 121-422"/>
    <path fill="#1E1E1E" d="m184 207.9-1.8.6-6.2 1.5-10 2.3a111.8 111.8 0 0 0-29.5 11.3c-2.5 1.5-5 3-7.3 4.7a99 99 0 0 1-6.8 4.4 56.4 56.4 0 0 0-6.4 4.4c-2.1 1.8-4 4-5.4 6.6-1.4 2.7-2.8 6-4.1 10.2a440 440 0 0 0-7.6 26.6l-2.3 8.6a84 84 0 0 0-1.9 9.5 30 30 0 0 0 0 8.2 32 32 0 0 0 2 7.2c1.1 2.5 2.5 4.8 4.2 6.8 1.7 2 3.5 4.5 5.5 7.4a82.3 82.3 0 0 0 10 12.1c1.7 1.6 4.3 3.4 7.9 5.4 3.6 2 4.6 2.1 3 .4-1.5-1.8-1.2-1.5 1.2.8 2.3 2.4 3.9 3.2 4.7 2.4.8-.7 1.8-.8 3-.2a10 10 0 0 1 3.1 2.3 11.7 11.7 0 0 1 3.4 7 11.8 11.8 0 0 1-1.4 7.6 12.8 12.8 0 0 1-9.6 6 12 12 0 0 1-10.5-4.5c-.9-1-1.5-2.2-2-3.4a12 12 0 0 1-.1-7.8 11.9 11.9 0 0 1 4.5-6.3 12.3 12.3 0 0 1 19.2 11 12.7 12.7 0 0 1-3 7.1 12.3 12.3 0 0 1-10.8 4l-2-.4-6.1-2.8a23.2 23.2 0 0 1-8.3-5.5c-1.5-1.8-1.3-1.7.4 0 1.7 1.9 1.3 1.7-1-.5-2.4-2.2-2.6-2.3-.5-.5 2 1.9 2 2.5-.2 1.7a31.4 31.4 0 0 1-13.3-8.7c-1.9-2-3.5-4-4.9-6l-4.6-6.5a41.5 41.5 0 0 0-5-6 56.9 56.9 0 0 1-11.2-24 50 50 0 0 1-.8-9.5A77.8 77.8 0 0 1 75 283a2621.7 2621.7 0 0 1 7.5-24.6l3-10.9a81 81 0 0 1 4.2-11.8c1.7-3.6 3.6-6.5 5.8-8.8a50 50 0 0 1 13.7-10c2.9-1.4 6-3.1 9.4-5a114.5 114.5 0 0 1 19.9-9c4-1.4 7.8-2.5 11.6-3.5 3.7-1 7.8-2.2 12.2-3.8a39 39 0 0 1 10.4-2.6 62.4 62.4 0 0 0 8.6-1h1.9c.6.2 1.3.3 1.9.6a7.3 7.3 0 0 1 3.2 2.2 7.6 7.6 0 0 1 2 5.3 8.2 8.2 0 0 1-2.1 5.4 8 8 0 0 1-3.2 2.1l-1 .4Z"/>
    <path fill="#000" d="M165 405.4a47.7 47.7 0 0 1 21-11.4 16 16 0 0 1 11 0c.5 0 1.3.3 2.3.6l2.2.6.8.1c.2 0 .7.4 1.7 1 1 .5 1.6.8 1.8.7l.5.1 1.4-1.4 1.9-1.2c2 0 3.3 1.1 4.2 3.6.3 1.5.4 3.7.4 6.7l.8 3.2a28.6 28.6 0 0 1 .8 21.6l-.5 2.1c-1.8 2.6-3.7 3.5-6 3-3.2-1.6-5-2.7-5.3-3.1l-.2-.3-.4-.4v-.3a86 86 0 0 1-.6-12.4c0-2-.2-3.5-.6-4.5l-1.8-3a15 15 0 0 0-2.4-3.5 4.8 4.8 0 0 0-3-1.5c-1.6-.3-3.1-.4-4.7-.3a19.2 19.2 0 0 0-8.1 2.6 131 131 0 0 0-3.7 2.1 128.8 128.8 0 0 0-7.5 5.6c-11.1 11.4-14.1 21.4-9 30.1a40.3 40.3 0 0 0 18.4 17.7l1.3 1 5.8 1c3.8.5 6.8.9 9.2 1 1.6 0 3.2.2 4.8.6a38.3 38.3 0 0 1 9.1 4c.5 1 .6 2.2.3 3.3a4 4 0 0 1-1.7 2.5c-2.3 1-3.8 1.6-4.6 1.5-7.2.5-13 .5-17.3-.2a59.8 59.8 0 0 1-29-17.5 36 36 0 0 1-8-11.3 30 30 0 0 1-2.7-13.2c.4-9.7 6-20 17.2-30.8Zm61.3 65.8c.2-1.5.8-2.9 2-4 1.1-1.1 2.4-1.7 3.8-1.5 3.2.1 5.6 1.5 7.4 4.1.3.3 1 1.4 2 3.3 3.3 3.3 7.6 5.8 13 7.6l9.2 2.4a57.4 57.4 0 0 0 18.7 1.8c4.4-2 6.4-4.1 6-6.4 0-1.9-1.4-4.3-3.9-7.2-2.5-3-4-4.7-4.3-5.4a317.8 317.8 0 0 1-27.4-20.6 39.3 39.3 0 0 1-5.4-5.2 65 65 0 0 1-4-6.8c-.7-1.7-.1-4.7 1.6-8.9 1-1.3 3.1-2.4 6.6-3l3-.2h3.1a89.4 89.4 0 0 1 27-4.9c1 0 3-.3 6-.8a107 107 0 0 1 14-1.4l7.8 1 4.5 3.8c.6.8.9 1.6.9 2.4 0 .8 0 1.8-.5 3l-.6 2.4c-3 2.4-5.4 3-7.4 1.8-.2 0-.7-.4-1.6-1.2l-1.3-1.3c-.5-.2-1.2-.3-2-.3s-1.8 0-3 .2l-2 .2c-2.7.7-7.1 1.6-13.2 2.6l-10.6 1.8a93 93 0 0 0-13.7 2.2l-.2.8c.7 1.8 1.9 3.6 3.4 5.3a49 49 0 0 0 6.8 5.8l5.3 4a64.2 64.2 0 0 1 23 24c1.1 5.3.9 9.9-.7 13.9a28.8 28.8 0 0 1-19.4 10.9 60 60 0 0 1-22.2-2.7 60.7 60.7 0 0 1-28.8-14c-2.7-3.3-3.6-6.5-3-9.5Zm79.4 19.4a7 7 0 0 1 2-4c1.2-1.2 2.5-1.7 3.8-1.5 3.2.1 5.7 1.5 7.4 4.1l2.1 3.3c3.2 3.3 7.5 5.8 13 7.6l9.1 2.4a57.4 57.4 0 0 0 18.8 1.8c4.3-2 6.3-4.1 6-6.4-.1-2-1.4-4.3-4-7.2-2.5-3-4-4.7-4.3-5.4a317.6 317.6 0 0 1-27.3-20.6 36 36 0 0 1-5.4-5.2 51 51 0 0 1-4-6.8c-.7-1.7-.2-4.7 1.6-8.9.9-1.3 3-2.4 6.6-3l2.9-.2c1.9 0 3-.1 3.2 0a89.2 89.2 0 0 1 27-4.9c1 0 3-.3 6-.8a107 107 0 0 1 14-1.4l7.7 1 4.5 3.8c.6.8 1 1.6 1 2.4 0 .8-.1 1.8-.5 3l-.6 2.4c-3 2.3-5.5 3-7.5 1.8a7 7 0 0 1-1.5-1.2l-1.4-1.3c-.5-.2-1.1-.3-2-.3-.8 0-1.8 0-3 .2l-2 .2c-2.7.7-7 1.6-13.1 2.6l-10.7 1.8c-7.4.9-12 1.6-13.7 2.2l-.2.8c.8 1.8 2 3.6 3.4 5.3a49 49 0 0 0 6.8 5.8l5.4 4a64.2 64.2 0 0 1 23 24c1 5.3.8 9.9-.7 13.9a28.8 28.8 0 0 1-19.4 10.9 60 60 0 0 1-22.2-2.7 60.7 60.7 0 0 1-28.8-14c-2.7-3.3-3.7-6.5-3-9.5Z"/>
  </g>
  <defs>
    <clipPath id="a">
      <path fill="#fff" d="M0 0h600v600H0z"/>
    </clipPath>
  </defs>
</svg>
