<svg xmlns="http://www.w3.org/2000/svg" fill="none" viewBox="0 0 600 600">
  <g clip-path="url(#a)">
    <path fill="#fff" d="M600 0H0v600h600V0Z"/>
    <path fill="#FFEC99" d="m102.2 173.6 269.4 7.7 4 316L94 501.6"/>
    <path stroke="#1E1E1E" stroke-linecap="round" stroke-width="6" d="M94.5 99.2c68.3-8.7 123-4.3 282.5-6.3m-276.7 3.7c63.3-2.5 123.8 2.1 280.3-2.3m.3-4.7a3669.7 3669.7 0 0 0 1.1 422.2m-.6-415.2c-.4 139 1 287.6 1.2 409.1m-2 1.7c-100.7.3-202 2-285.1-3m285 2.2c-98 3.2-195.2.7-280.9 3.1m-.6-6.1c-5-126-2.1-257.4 5.7-408.7m-5.5 409.6c1.5-94 3.6-190.3.1-408.6"/>
    <path fill="#1E1E1E" d="M153.7 149.5c4.5-6 9-10 13.3-12 2.6-1.6 5.3-2.3 8-2h4.1l1.4.5 1.4.2h.4c0-.2.3-.7.8-1.3l1-1.2c1.5-.4 2.7.2 3.8 1.9.4 1 1 2.5 1.5 4.7l1 2.2A21.3 21.3 0 0 1 195 158v1.6c-.8 2.2-2 3.2-3.8 3.2-2.6-.6-4-1-4.4-1.3l-.2-.2c-.2 0-.3-.1-.3-.2l-.1-.2a64 64 0 0 1-2.6-8.9 8.3 8.3 0 0 0-1.2-3.1l-2-2c-.7-.8-1.5-1.5-2.2-2-.8-.5-1.6-.7-2.6-.5-1 0-2.2.2-3.4.6a14.3 14.3 0 0 0-5.4 3.3l-2.3 2.2a94.2 94.2 0 0 0-4.4 5.3c-6 10.2-6.5 18-1.2 23.5a30 30 0 0 0 16.4 9.5l1.2.5a191.8 191.8 0 0 0 11.2-1.2c1.1-.3 2.3-.4 3.6-.4a28.4 28.4 0 0 1 7.3 1.3c.5.6.8 1.4.8 2.3a3 3 0 0 1-.8 2c-1.5 1.3-2.5 2-3.1 2-5 1.7-9.3 2.6-12.5 2.9a44.5 44.5 0 0 1-24-7.5c-3-1.7-5.6-4-8-6.8a22.4 22.4 0 0 1-4.2-9c-1.5-7.1.9-15.6 7-25.4Zm56 36.8a5 5 0 0 1 .8-3.2 3.2 3.2 0 0 1 2.5-1.8c2.3-.5 4.4 0 6.1 1.7.3.1 1 .8 2.1 2 2.9 1.8 6.5 2.8 10.7 3.2h7a42.8 42.8 0 0 0 14-2c2.8-2.1 3.8-4 3.2-5.6-.4-1.4-1.8-2.9-4.1-4.5a50.7 50.7 0 0 1-4.1-3.2c-7.4-2.6-15.2-6-23.5-10a27 27 0 0 1-4.8-2.9c-1-.8-2.4-2.2-4.1-4.2-.8-1.1-1-3.4-.4-6.7.4-1.1 1.8-2.3 4.2-3.4l2.1-.6a16 16 0 0 1 2.3-.6 66.8 66.8 0 0 1 18.7-8.3l4.3-1.6a80.3 80.3 0 0 1 9.8-3.5l5.8-.6 3.9 1.9c.6.4 1 1 1.1 1.6.2.5.3 1.2.2 2.2v1.9c-1.7 2.2-3.4 3-5.1 2.6l-1.3-.6-1.2-.7a4 4 0 0 0-1.5 0l-2.1.8-1.5.5c-1.8 1-4.8 2.4-9 4.2l-7.5 3.2c-5.2 2-8.3 3.3-9.5 4v.6a13 13 0 0 0 3.4 3.2c1.4 1 3.4 2 6 3 2.5 1 4 1.8 4.5 2 9.7 3.6 16.7 8 21 13.3 1.7 3.7 2.3 7 1.9 10.2a21.4 21.4 0 0 1-12.1 11.3 44.8 44.8 0 0 1-16.6 2 45.3 45.3 0 0 1-23.3-5.1c-2.6-1.9-3.8-4-3.8-6.3Zm61 0a5 5 0 0 1 .8-3.2 3.2 3.2 0 0 1 2.5-1.8c2.3-.5 4.3 0 6 1.7.3.1 1 .8 2.2 2 2.8 1.8 6.4 2.8 10.7 3.2h7a42.8 42.8 0 0 0 14-2c2.8-2.1 3.8-4 3.2-5.6-.5-1.4-1.8-2.9-4.2-4.5a50.4 50.4 0 0 1-4-3.2c-7.4-2.6-15.2-6-23.5-10a27 27 0 0 1-4.8-2.9c-1-.8-2.4-2.2-4.1-4.2-.8-1.1-1-3.4-.4-6.7.4-1.1 1.8-2.3 4.2-3.4l2-.6a16 16 0 0 1 2.4-.6 66.8 66.8 0 0 1 18.7-8.3l4.2-1.6a80.2 80.2 0 0 1 9.9-3.5l5.8-.6 3.9 1.9c.6.4 1 1 1 1.6.3.5.3 1.2.3 2.2v1.9c-1.8 2.2-3.5 3-5.1 2.6l-1.3-.6-1.2-.7a4 4 0 0 0-1.5 0l-2.1.8-1.6.5c-1.8 1-4.8 2.4-9 4.2l-7.4 3.2c-5.2 2-8.4 3.3-9.5 4v.6a13 13 0 0 0 3.4 3.2c1.4 1 3.4 2 6 3l4.5 2c9.7 3.6 16.7 8 21 13.3 1.6 3.7 2.3 7 1.9 10.2a21.4 21.4 0 0 1-12.1 11.3 44.8 44.8 0 0 1-16.6 2 45.3 45.3 0 0 1-23.3-5.1c-2.6-1.9-3.9-4-3.9-6.3Zm-125.1 81.2c.4-1 1-1.9 2-2.5a5 5 0 0 1 3.4-.8h1.1l1 .4.9.5.8 1 .8.8.8 1 .6.9c.3.6 1.5 2 3.8 4.4.5.6.7 1.4.7 2.4 0 .8-.2 1.5-.7 2h-2.2a7 7 0 0 1-3.5-.1c-1.1-.4-2.7-1-4.6-2l-3-1.6a5 5 0 0 1-2.3-2.8c-.4-1.3-.2-2.5.4-3.6Zm6.4 50.8-.6-5.3a1303.1 1303.1 0 0 1-1.3-13.8v-5.7c1-1.7 2.7-2.4 5-1.9.9.4 1.7 1.7 2.6 3.8a34 34 0 0 0 1 8.3 247.8 247.8 0 0 0 2.1 8.2c0 .6 0 1.5-.2 2.7a50.5 50.5 0 0 1-1 7.4c0 .3-.2.7-.5 1-.2.4-.5.7-.8.9-1.8.3-3.3 0-4.4-1.2-1.1-2-1.8-3.5-1.9-4.4Zm20.7-2 1-1.5 1-1.8c3.4.7 6.3 2.1 8.7 4.5a15 15 0 0 0 4.5 2.2l4 1a92.6 92.6 0 0 0 10 0c1.4 0 3.4-.5 5.7-1.3.7-.3 1-.8 1.2-1.4.1-.7 0-1.3-.6-1.7-1.3-1-4.6-2.7-10-5.4l-8.3-4.2a55.9 55.9 0 0 1-19.6-10.5l-1.8-1.9c-.5-.7-.8-1.4-.9-2.2 0-2.6 1.2-5 3.8-7a83 83 0 0 1 4-1.1 30 30 0 0 0 5-2 59.6 59.6 0 0 1 18.8-4.2 27.3 27.3 0 0 0 2 .2c.6 0 1 .1 1 .2l.9.3c.4.1.7.3.8.5l.7.6c.3.2.5.4.6.8l.5 1c.4 2.3-.2 4.2-2 5.7a146.2 146.2 0 0 0-13 1.1 26.3 26.3 0 0 0-5.9 2.3c-.9.3-1.5.9-1.9 1.6-.2.7.2 1.4 1.2 2a91 91 0 0 0 13.7 7.2c6 2.8 10 4.8 12.3 6 2.2 1.4 4.1 3.1 5.7 5.1 1.7 2 2.7 4.2 3.1 6.7.5 2.4-.6 4.6-3 6.6a16.8 16.8 0 0 1-6.4 2.9 38.5 38.5 0 0 1-13.2 1.5 33 33 0 0 1-20.5-6.3c-2.6-1-3.7-3.5-3-7.5Zm-21.9 125.2.9-1.5 1-1.7c3.5.6 6.4 2 8.8 4.4a15 15 0 0 0 4.5 2.2c1.8.6 3.2 1 4 1a92.6 92.6 0 0 0 10 0c1.4 0 3.3-.4 5.7-1.3.6-.2 1-.7 1.2-1.4.1-.6 0-1.2-.6-1.7-1.3-1-4.6-2.7-10-5.3L168 432a55.9 55.9 0 0 1-19.5-10.5l-1.8-2c-.5-.6-.8-1.3-1-2.1 0-2.6 1.3-5 3.9-7l3.9-1.1c2.3-.7 4-1.4 5-2a59.6 59.6 0 0 1 18.9-4.3 27.4 27.4 0 0 0 2 .2l1 .2.9.3.8.5.7.6.6.9.5 1c.4 2.3-.3 4.2-2 5.7a145.8 145.8 0 0 0-13 1 26.3 26.3 0 0 0-5.9 2.4c-1 .3-1.6.8-1.9 1.6-.3.7.2 1.3 1.2 1.9a91 91 0 0 0 13.6 7.3c6 2.7 10.2 4.7 12.4 6 2.2 1.4 4 3.1 5.7 5.1 1.7 2 2.7 4.2 3 6.6.6 2.5-.5 4.7-3 6.6a16.8 16.8 0 0 1-6.3 3 38.5 38.5 0 0 1-13.3 1.5A33 33 0 0 1 154 449c-2.7-1-3.7-3.5-3.1-7.5Zm88.7-7.4a61.7 61.7 0 0 1-12.3 11.8c-3.4 2.3-7 3.4-11 3.3a13.5 13.5 0 0 1-11.6-4.4l-1.3-1.9-1-1.8a18 18 0 0 1-1-2l-.5-2a8 8 0 0 1 0-4.3c0-2.3.8-4.6 2.2-7a39 39 0 0 1 4.4-5.5 111.5 111.5 0 0 1 6.7-5.8c2.8-2.3 6.6-3.4 11.5-3.4 1 0 4.1.2 9.5.8l1.3.7c.8.3 1.3.7 1.7 1 .3.4.3.9 0 1.5l1.4 1.3c2 .8 3.3 1.7 3.8 2.5 3.3 6.8 6.3 12.3 8.8 16.4l2.5 2.3 2.6 2.2 2 1.7a8 8 0 0 0 2 1.5c.5.4 1 .6 1.7.6l1.3 1.2c.1.2 0 .5 0 .8a14 14 0 0 1-.7 1.8c-.6 1-2.1 1.8-4.4 2.4l-1.7.1c-.2.2-.7.1-1.4-.2a11 11 0 0 1-2.6-1.2l-1.5-.9-.4-.2c-1.7-1.4-4-3.8-7-7.2l-5-6Zm-29.2 3.1a6 6 0 0 0 5.4 2.7c1.2 0 2.7-.2 4.7-.8 3.3-1.2 6.3-3.3 9-6.3a21.6 21.6 0 0 0 4.8-11.8l.3-3a38 38 0 0 1-5.8.9c-2.5.1-4.4.3-5.8.6-1.7.2-3.5 1-5.3 2.5a21.2 21.2 0 0 0-4 3.8l-3.9 5.1c-1.1 1.4-1 3.5.6 6.3Zm97-17 .5.2c.3-2.8.9-4.6 1.7-5.5.8-1 1.4-1.4 1.8-1.4h1.9c.4.2 1 .5 1.4 1l1.2 1a9.9 9.9 0 0 1 1.4 6.3l-2 4.7c-.4 2.5-.5 5-.2 7.6a15 15 0 0 0 2.9 7c1.2 2.9 1.3 5 .3 6.3-.3.7-.8 1-1.6 1a5 5 0 0 1-1.5-.3 31 31 0 0 1-3.4-1.4c-2.4-1.6-3.9-4.2-4.6-7.9-2.6 2.9-5.2 5-7.7 6.3a40.8 40.8 0 0 1-9.8 3.3c-2.2.3-4.4 0-6.5-.8a18 18 0 0 1-4.6-2.4l-5.1-4.4a16 16 0 0 1-3.5-7.3l-.5-2.9V427l.1-3.8c.4-.4.6-1 .6-2v-.5c-.2-1 .3-3.4 1.4-7 0-.3.5-.7 1-1.3.7-.7 1.2-1.1 1.5-1.2.6-.2 1.6-.1 3.2.2l2.5.4c.5.1 1 .3 1.2.7.3.3.5.7.6 1.3l.2 1.3-.1 1.6v1.4l-.3.7-.3.6c-1.4 2.9-2 5.9-2 9-.2 1.7.2 3.5 1.3 5.4 1 1.8 2.3 3.4 3.9 4.6 3.2.8 5.2 1.1 5.9 1.1a9 9 0 0 0 4.2-1c1-.5 2-1 3-1.7s1.8-1.4 2.4-2a53.8 53.8 0 0 0 7.5-11.5v-1.5l.1-1.4Zm22.8 50.5c1.6-1.2 3-1.8 4.6-1.8a4 4 0 0 1 3 1.2c.4.3 1.2 1.3 2.6 3a27 27 0 0 0 3.7 3.8c1.1.8 2.3 1.3 3.6 1.5h.4a5.9 5.9 0 0 0 3-3.6c.6-1.7 1-3.8 1.2-6.3a280.1 280.1 0 0 0 1.9-13.8c.5-4 1-6.8 1.3-8.6h-1.1a45.4 45.4 0 0 1-20.4 0 26.8 26.8 0 0 1-7-6 13 13 0 0 1-3.1-8c.3-3 1.8-5.8 4.6-8.7 2.8-3 5.7-5 8.7-6.4a14 14 0 0 1 9.3-3.1c4.7 0 8.2 1.6 10.4 4.9v3.8c0 .4-.2.8-.6 1.2-.4.4-1 .6-2 .7-.7-.5-2.9-1-6.4-1.3-4.3-.3-8.4 2-12.6 7l-.7 1.1v1.2l.4 1.1.8 1.1 1 1 1 .8.7.7c2 .8 4.2 1.2 6.6 1.2 2.2 0 4.4-.3 6.6-1a17 17 0 0 0 6-3.5 8 8 0 0 0 3-5.6 7 7 0 0 1 5-5.7h.4l.9.3 1 .3.8.2.8.3.7.4c.3.1.5.3.6.5l.4.6c.2.2.3.4.3.7v.8l-.1 1c.1 2-.8 4.8-2.7 8.3-1.9 3.5-3 6-3.3 7.4-3 9.5-5 18.8-6.1 28-.5 5.7-1.5 10-3.1 12.6-2 3-3.7 5-5 5.8-1 .6-2 1-3.2 1.2a52.4 52.4 0 0 1-12.2-7.6l-3.4-1.8-2.4-2c-.9-1-1.5-2-1.8-3.2-.1-2.8.5-4.7 2-5.7ZM98 241.3l-1.6 1-5 3-8.4 4.5a104.1 104.1 0 0 0-23.6 17.8l-5.3 6a92 92 0 0 1-5 5.7 52.5 52.5 0 0 0-4.5 5.6 19.2 19.2 0 0 0-3.1 7.3c-.7 2.8-1 6.1-1.2 10.1a413.2 413.2 0 0 0 .1 25.8l.2 8.3c0 3 .3 6 .7 9a28 28 0 0 0 2 7.3c1 2 2.2 4 3.8 6 1.5 1.9 3.3 3.6 5.4 5 2 1.4 4.3 3.1 6.8 5.2a76.6 76.6 0 0 0 12.1 8.3c2 1 4.7 1.9 8.4 2.8 3.8.8 4.7.7 2.9-.5-1.9-1.2-1.5-1 1.2.5s4.3 1.8 4.8 1c.5-1 1.4-1.3 2.6-1a10.9 10.9 0 0 1 8.3 6.6 11 11 0 0 1 .6 7.2c-.3 1.2-.8 2.3-1.4 3.3a11.9 11.9 0 0 1-5.6 4.6 11.1 11.1 0 0 1-10.6-1.4 11.1 11.1 0 0 1-4.7-9.5 11 11 0 0 1 2.4-6.8 11.4 11.4 0 0 1 20 5 11.8 11.8 0 0 1-1 7 11.5 11.5 0 0 1-8.5 6.3l-1.9.3-6.2-1c-4-.6-7-1.5-8.8-2.8-1.8-1.2-1.6-1.2.4 0 2 1.1 1.6 1-1.1-.3s-2.9-1.4-.5-.3c2.3 1.1 2.4 1.7.2 1.6a29.2 29.2 0 0 1-14.1-4.4 65.6 65.6 0 0 1-6-4.1l-5.7-4.7c-2-1.7-4-3-6-4.1a53 53 0 0 1-16.2-18.6 39.6 39.6 0 0 1-3.1-8.3 72.4 72.4 0 0 1-2.3-19.2 2481 2481 0 0 1 .4-24V302c-.1-4.2.1-8 .7-11.7a29 29 0 0 1 2.9-9.3 46.6 46.6 0 0 1 9.7-12.5l7.1-6.9a106.3 106.3 0 0 1 15.5-13 104 104 0 0 1 9.5-6.2c3.1-1.8 6.4-4 10-6.6 3.4-2.5 6.3-4.2 8.6-5a58.1 58.1 0 0 0 7.4-3l1.7-.5h2a6.8 6.8 0 0 1 3.4 1.2 7 7 0 0 1 3.1 4.2 7.6 7.6 0 0 1-1.4 6.8 7 7 0 0 1-1.4 1.3l-.7.5Zm333 183 .4.1c.3-2.7.9-4.6 1.7-5.5.8-1 1.4-1.4 1.8-1.4h1.9l1.4 1 1.2 1a9.8 9.8 0 0 1 1.3 6.3l-1.9 4.7c-.4 2.5-.5 5-.2 7.6a16 16 0 0 0 2.8 7c1.3 2.9 1.4 5 .4 6.4-.3.6-.8 1-1.6 1a5 5 0 0 1-1.5-.3 31 31 0 0 1-3.4-1.4c-2.4-1.6-4-4.3-4.6-8-2.6 3-5.2 5-7.7 6.4a40.8 40.8 0 0 1-9.8 3.3c-2.2.2-4.4 0-6.5-.8a18 18 0 0 1-4.6-2.4l-5.1-4.5a16 16 0 0 1-3.5-7.3l-.5-2.9V431l.1-3.8c.4-.4.6-1 .6-1.9v-.6c-.2-1 .3-3.3 1.3-7l1.2-1.3c.6-.7 1-1 1.4-1.2.6-.2 1.6 0 3.2.2l2.5.4c.5.1.9.4 1.2.7.3.3.5.8.6 1.3l.2 1.3-.1 1.6v1.4l-.3.7-.3.6c-1.4 2.9-2 5.9-2 9-.2 1.8.2 3.6 1.3 5.4 1 1.8 2.3 3.4 3.9 4.6 3.2.8 5.2 1.1 5.9 1.1a9 9 0 0 0 4.2-1c1-.5 2-1 3-1.7s1.8-1.4 2.4-2a53.8 53.8 0 0 0 7.5-11.5v-1.5l.1-1.4Zm55.9 13.8a61.7 61.7 0 0 1-12.3 11.8 19 19 0 0 1-11 3.4 13.5 13.5 0 0 1-11.6-4.4l-1.3-2-1-1.8a18 18 0 0 1-1-2l-.5-2a8 8 0 0 1 0-4.3c0-2.2.8-4.5 2.2-6.9 1.5-2.3 3-4.2 4.4-5.6a111.5 111.5 0 0 1 6.7-5.8c2.8-2.3 6.6-3.4 11.5-3.4l9.5.8c.1.1.5.4 1.3.7.8.3 1.3.7 1.7 1 .3.4.3.9 0 1.5l1.4 1.3c2 .9 3.3 1.7 3.8 2.5 3.3 6.8 6.3 12.3 8.8 16.4l2.5 2.3 2.6 2.2 2 1.7c.7.7 1.4 1.2 2 1.6.5.3 1 .5 1.7.6l1.3 1.2c.1.2 0 .4 0 .8a14 14 0 0 1-.7 1.8c-.6 1-2.1 1.8-4.4 2.4h-1.7c-.2.2-.7.1-1.4-.1a11 11 0 0 1-2.6-1.2l-1.5-1-.4-.1c-1.7-1.4-4-3.8-6.9-7.3l-5.1-6Zm-29.2 3.1a6 6 0 0 0 5.4 2.7c1.2 0 2.7-.2 4.7-.8 3.3-1.2 6.3-3.3 9-6.3a21.6 21.6 0 0 0 4.8-11.8l.3-2.9a38 38 0 0 1-5.8.8c-2.5.1-4.4.3-5.8.6-1.7.3-3.5 1.1-5.3 2.5a21.2 21.2 0 0 0-4 3.8l-4 5.2c-1.1 1.4-1 3.5.6 6.3Zm55.7-5.8v-.7c.7-5.3 3.2-10 7.7-14.1 4.4-4.1 9.2-5.8 14.5-5a11 11 0 0 1 6.6 2.9c2 1.7 3 3.8 3 6.1 0 .7-.3 1.1-.7 1.3-.4.1-1 .2-1.7.1s-1.2-.2-1.5 0a21.3 21.3 0 0 0-9.5-1.4c-6.8 3.5-10.2 8-10.1 13.3-.6 2.2-.1 4 1.4 5.2a8.1 8.1 0 0 0 5.5 2 8 8 0 0 0 3.9-.9c7.1-3.7 13-10.9 17.7-21.5l.1-4 .4-12.2.1-4a66 66 0 0 1 2-12.8c0-1 .2-2.1.4-3.7a840.6 840.6 0 0 0 1.4-8.3c.3-2 1.4-3.2 3.2-3.8 1.1 0 2.3.4 3.5 1.1 1.3.6 2 1.3 2.2 2.1.3.8.5 1.7.6 2.7v5.5c0 .5 0 1.8.3 4l.4 3.6c0 2.5-.5 7.4-1.3 14.6-.3 1.4-.9 3.4-2 6-1 2.6-1.7 4.6-1.9 6v6.4l.1.3.5 1.2.1.3 2 6.4c.3 1.6.8 3.2 1.5 4.7a461.8 461.8 0 0 0 4.2 9.9c0 2-.3 3.5-1.3 4.3-.3.4-.7.6-1.1.6a13 13 0 0 1-3.4-1.7l-2-2.3A41.3 41.3 0 0 1 555 438l-1-2.8c-.8.6-2.3 2.1-4.3 4.7s-3 4-3.3 4.2c-4.8 5-9.2 8.1-13.3 9.5l-7.4.8c-3.3 0-6-.9-7.8-2.6a16 16 0 0 1-2.6-2.6c-1-1.8-1.7-4-2-6.8-.2-2.7-.1-5 .1-7Z"/>
  </g>
  <defs>
    <clipPath id="a">
      <path fill="#fff" d="M0 0h600v600H0z"/>
    </clipPath>
  </defs>
</svg>
